HIERARCHY
ROOT Hips
{
  OFFSET -6.50035 106.728 -6.46591
  CHANNELS 6 Xposition Yposition Zposition Zrotation Xrotation Yrotation
  JOINT ToSpine
  {
    OFFSET -2.69724 7.43032 -0.144315
    CHANNELS 3 Zrotation Xrotation Yrotation
    JOINT Spine
    {
      OFFSET -0.0310711 10.7595 1.96963
      CHANNELS 3 Zrotation Xrotation Yrotation
      JOINT Spine1
      {
        OFFSET 19.9056 3.91189 0.764692
        CHANNELS 3 Zrotation Xrotation Yrotation
        JOINT Neck
        {
          OFFSET 25.9749 7.03908 -0.130764
          CHANNELS 3 Zrotation Xrotation Yrotation
          JOINT Head
          {
            OFFSET 9.52751 0.295786 -0.907742
            CHANNELS 3 Zrotation Xrotation Yrotation
            End Site
            {
              OFFSET 16.4037 0.713936 2.7358
            }
          }
        }
        JOINT LeftShoulder
        {
          OFFSET 17.7449 4.33886 11.7777
          CHANNELS 3 Zrotation Xrotation Yrotation
          JOINT LeftArm
          {
            OFFSET 0.911315 1.27913 9.80584
            CHANNELS 3 Zrotation Xrotation Yrotation
            JOINT LeftForeArm
            {
              OFFSET 28.6126 1.18197 -3.53199
              CHANNELS 3 Zrotation Xrotation Yrotation
              JOINT LeftHand
              {
                OFFSET 27.5088 0.0218783 0.327423
                CHANNELS 3 Zrotation Xrotation Yrotation
                End Site
                {
                  OFFSET 18.6038 -0.000155887 0.382096
                }
              }
            }
          }
        }
        JOINT RightShoulder
        {
          OFFSET 17.1009 2.89543 -12.2328
          CHANNELS 3 Zrotation Xrotation Yrotation
          JOINT RightArm
          {
            OFFSET 1.4228 0.178766 -10.211
            CHANNELS 3 Zrotation Xrotation Yrotation
            JOINT RightForeArm
            {
              OFFSET 28.733 1.87905 2.64907
              CHANNELS 3 Zrotation Xrotation Yrotation
              JOINT RightHand
              {
                OFFSET 27.4588 0.290562 -0.101845
                CHANNELS 3 Zrotation Xrotation Yrotation
                End Site
                {
                  OFFSET 17.8396 -0.255518 -0.000602873
                }
              }
            }
          }
        }
      }
    }
  }
  JOINT LeftUpLeg
  {
    OFFSET -5.61296 -2.22332 -10.2353
    CHANNELS 3 Zrotation Xrotation Yrotation
    JOINT LeftLeg
    {
      OFFSET 2.56703 -44.7417 -7.93097
      CHANNELS 3 Zrotation Xrotation Yrotation
      JOINT LeftFoot
      {
        OFFSET 3.16933 -46.5642 -3.96578
        CHANNELS 3 Zrotation Xrotation Yrotation
        JOINT LeftToeBase
        {
          OFFSET 0.346054 -6.02161 12.8035
          CHANNELS 3 Zrotation Xrotation Yrotation
          End Site
          {
            OFFSET 0.134235 -1.35082 5.13018
          }
        }
      }
    }
  }
  JOINT RightUpLeg
  {
    OFFSET -5.7928 -1.72406 10.6446
    CHANNELS 3 Zrotation Xrotation Yrotation
    JOINT RightLeg
    {
      OFFSET -2.57161 -44.7178 -7.85259
      CHANNELS 3 Zrotation Xrotation Yrotation
      JOINT RightFoot
      {
        OFFSET -3.10148 -46.5936 -4.03391
        CHANNELS 3 Zrotation Xrotation Yrotation
        JOINT RightToeBase
        {
          OFFSET -0.0828122 -6.13587 12.8035
          CHANNELS 3 Zrotation Xrotation Yrotation
          End Site
          {
            OFFSET -0.131328 -1.35082 5.13018
          }
        }
      }
    }
  }
}
MOTION
Frames:	13
Frame Time:	0.0333333
-6.12886 41.2717 -12.833 90.0742 -85.016 -0.510827 -70.1915 0 88.8779 162.265 31.0401 -76.0546 -6.05567 22.2222 1.1421 -174.951 25.7829 -175.009 -173.173 67.029 -155.38 0.755872 -14.373 -15.6369 -60.8445 30.7091 -164.42 34.3132 25.0042 -55.7253 -11.9502 0.111016 0.724705 -0.314215 3.76953 24.7366 -62.1347 -30.516 146.154 41.8525 -15.6219 71.9763 6.93451 -1.24893 -22.7449 19.5819 4.9707 76.1856 -171.178 22.7165 154.917 -0.123821 1.87363 0.0386592 -28.2577 -49.6813 -13.3626 16.2112 -23.3892 101.104 171.032 18.991 -149.614 -4.41073 -6.65978 0.924035 -13.886 -44.35 -16.2097 
-6.13621 41.3214 -12.8943 90.8292 -84.8942 0.382464 -70.1915 0 88.8779 162.392 30.8313 -76.0559 -5.99601 22.1908 1.19858 -174.652 25.8443 -175.04 -173.066 67.061 -155.102 0.766611 -14.3124 -15.4476 -60.8726 30.6733 -164.63 34.2133 24.8283 -55.8012 -12.5223 0.0706577 1.14918 -0.284337 3.56946 24.5828 -62.0184 -30.4219 146.326 43.3632 -15.8689 72.6 6.77213 -1.24103 -23.175 19.6023 4.81974 76.175 -171.185 22.806 155.075 -0.0536305 2.07428 0.0434981 -28.4165 -49.8086 -13.5087 16.0956 -23.5836 100.9 171.028 19.0833 -149.57 -4.33653 -6.43498 0.911689 -13.9941 -44.4481 -16.417 
-6.20419 41.3065 -12.9494 90.7888 -84.9571 0.309086 -70.1915 0 88.8779 162.377 30.7216 -76.1776 -5.94922 22.2505 1.05412 -174.111 25.8961 -175.581 -172.209 67.0287 -155.551 0.798391 -14.1926 -14.7747 -60.7436 30.8803 -164.936 34.1899 24.5244 -56.087 -13.193 0.0220469 1.61231 -0.26656 3.43042 24.5569 -61.7082 -30.2162 146.42 44.736 -15.9585 73.284 6.86397 -1.29678 -23.835 19.641 4.93175 76.0989 -171.183 22.847 155.049 -0.0472864 2.06962 0.0422448 -28.4682 -49.8276 -13.5871 16.2448 -23.4908 100.736 171.036 19.0867 -149.744 -4.31743 -6.2423 0.903841 -14.0781 -44.5468 -16.5468 
-6.24725 41.217 -13.0182 90.8641 -85.0222 0.451362 -70.1915 0 88.8779 162.445 30.5875 -76.205 -5.81658 22.2768 0.9751 -173.943 25.8887 -175.448 -172.547 67.0097 -154.974 0.832385 -13.931 -14.1555 -60.5374 31.2219 -165.343 34.2884 24.1665 -56.5573 -13.8896 -0.0350135 2.09546 -0.229303 3.33566 23.8256 -61.3348 -30.6085 146.843 46.1458 -16.0237 73.9837 6.76887 -1.27568 -23.8108 19.7287 4.83064 75.9324 -171.182 22.7782 155.013 -0.162869 1.93262 0.0483927 -28.4432 -49.9526 -13.363 16.4259 -23.4056 100.556 171.042 19.0259 -149.851 -4.28843 -6.12602 0.8979 -14.1188 -44.5583 -16.658 
-6.27689 41.092 -13.0866 91.3544 -84.6242 1.02783 -70.1915 0 88.8779 162.33 30.5255 -76.2155 -5.63791 22.0079 1.37835 -173.835 25.8673 -174.914 -173.462 67.0046 -153.849 0.856573 -13.5634 -13.8951 -60.4625 31.2096 -165.575 34.2653 23.6648 -57.0586 -14.6727 -0.134191 2.864 -0.196598 3.33262 22.9302 -61.0773 -31.1548 147.169 47.5655 -15.9357 74.8026 6.55444 -1.23745 -23.9267 20.0218 4.3782 75.9466 -171.188 22.7063 155.087 -0.30622 2.0599 0.0774711 -28.483 -49.9473 -13.4509 16.4258 -23.7929 100.611 171.039 18.8976 -149.75 -4.357 -6.1259 0.902606 -14.2354 -44.6905 -16.8421 
-6.34043 40.9854 -13.1941 95.6512 -84.6511 5.18732 -70.1915 0 88.8779 162.422 29.8948 -76.643 -5.83399 22.0702 1.40072 -173.162 25.9048 -175.152 -173.242 66.9612 -153.57 0.893936 -13.347 -12.9365 -60.0425 31.8817 -166.188 34.5294 23.3006 -57.7077 -15.6434 -0.24018 3.57937 -0.146903 3.05816 22.301 -60.5538 -31.6738 147.725 48.714 -15.8128 75.4833 6.61999 -1.26493 -24.1788 19.6473 4.48866 75.9695 -171.185 22.6836 155.028 -0.248177 1.90475 0.0579727 -28.478 -50.0222 -13.3369 16.2813 -23.6057 100.677 171.045 18.797 -149.835 -4.32215 -6.07194 0.898391 -14.2697 -44.7437 -16.8766 
-6.32949 40.807 -13.3039 97.0493 -84.1527 6.59692 -70.1915 0 88.8779 162.372 29.473 -76.5885 -5.90219 21.7715 1.60418 -172.809 25.9104 -174.807 -174.09 66.9306 -152.411 0.92761 -12.9979 -12.0718 -59.5855 32.8719 -166.761 35.4912 23.077 -58.8826 -16.8546 -0.337699 4.11444 -0.0907609 2.74374 21.4906 -60.0066 -32.3851 148.663 49.8604 -15.7101 76.1194 6.30514 -1.17786 -23.7852 19.8174 3.94109 76.1953 -171.192 22.57 155.113 -0.336557 1.98586 0.0764919 -28.4357 -50.1486 -13.0773 16.3037 -23.9054 101.072 171.04 18.6031 -149.649 -4.1551 -6.25975 0.893484 -14.2132 -44.7089 -16.749 
-6.25525 40.6447 -13.437 95.7426 -82.8375 5.60445 -70.1915 0 88.8779 162.359 29.0765 -75.8954 -5.95324 21.0633 2.02194 -172.789 25.9511 -174.191 -175.17 66.9779 -151.282 0.946761 -12.6205 -11.6471 -59.2664 33.5162 -167.244 36.0568 22.5377 -59.984 -17.6356 -0.467909 4.85724 -0.0506081 2.54651 20.7136 -59.646 -33.2011 149.279 50.7633 -15.4705 76.7386 6.173 -1.13883 -23.5574 20.6304 2.25443 76.6019 -171.218 22.5019 155.534 -0.670836 2.5088 0.162392 -28.4377 -50.1364 -13.098 16.1529 -25.1566 101.601 171.019 18.4398 -149.12 -4.06872 -6.81046 0.907555 -14.0724 -44.5201 -16.5652 
-6.09635 40.6051 -13.4815 95.2316 -82.2414 5.5724 -70.1915 0 88.8779 162.59 28.7817 -74.9174 -5.82617 20.7779 1.42331 -172.007 26.0008 -174.589 -174.752 66.9301 -151.225 0.967288 -12.3774 -10.8947 -58.9327 34.4417 -167.485 36.5124 21.8673 -61.1111 -18.4274 -0.634546 5.76731 -0.0608059 2.55317 21.053 -59.5891 -33.0789 149.028 51.0901 -14.7921 77.4594 5.93194 -1.10451 -23.8728 20.9252 1.44365 76.6485 -171.237 22.4202 155.848 -0.427144 2.63636 0.137767 -28.4683 -50.2987 -12.937 15.7165 -25.8249 101.741 170.992 18.4599 -148.514 -3.88949 -7.56377 0.9242 -13.6728 -43.9493 -16.0716 
-6.52798 40.6309 -13.6768 98.7996 -84.4747 8.16128 -70.1915 0 88.8779 162.569 28.7532 -77.3226 -6.07534 22.0681 1.56763 -171.172 26.13 -174.875 -174.279 66.9746 -151.09 0.980587 -12.3428 -10.2773 -58.6442 35.542 -167.627 37.2326 21.1844 -62.4744 -19.3308 -0.796358 6.52868 -0.0499629 2.46327 20.9526 -59.3557 -33.5502 149.067 51.8658 -14.2872 78.2059 5.56323 -1.03429 -24.0165 19.9877 4.39392 76.0183 -171.181 22.6305 154.948 -0.301083 1.94065 0.0678549 -28.4108 -50.242 -12.8987 16.8907 -22.6322 101.023 171.066 18.5044 -150.196 -3.31124 -7.19411 0.876655 -13.2379 -43.388 -15.4225 
-6.57461 40.6554 -13.7875 97.419 -83.7766 6.47528 -70.1915 0 88.8779 162.193 28.7734 -77.3175 -6.0115 21.6839 1.9032 -170.558 26.3068 -174.84 -174.337 67.0914 -150.604 0.979683 -12.3275 -10.3297 -58.7844 36.1789 -167.176 37.9715 20.3721 -63.9648 -20.2411 -1.00068 7.47779 -0.0249163 2.3229 20.4724 -58.9691 -34.0443 149.512 52.306 -13.8795 78.7184 5.35814 -0.988935 -23.9583 20.205 3.72078 76.7014 -171.187 22.8501 155.145 -0.371195 2.15121 0.0933288 -28.284 -50.1599 -12.755 17.0178 -22.9962 101.766 171.066 18.448 -150.186 -3.27641 -8.10415 0.914149 -12.6511 -42.5277 -14.6301 
-6.61949 40.7965 -13.9058 95.3803 -83.8534 4.52666 -70.1915 0 88.8779 162.261 28.8951 -77.3121 -5.87341 21.7891 1.83148 -170.082 26.4499 -175.154 -173.512 67.2059 -150.984 0.980631 -12.2985 -10.2975 -59.0483 36.5883 -166.753 38.3749 19.6359 -65.0795 -20.3263 -1.04486 7.6987 -0.00637182 2.16648 20.254 -58.7293 -34.2326 149.858 52.2775 -13.3942 79.11 5.47264 -1.03352 -24.4568 20.4083 3.68538 76.629 -171.183 23.0654 155.158 -0.428609 2.27096 0.110316 -28.2594 -50.1798 -12.6778 17.0802 -22.6568 101.497 171.076 18.6635 -150.465 -3.0586 -8.90106 0.938839 -12.0014 -41.4617 -13.8221 
-6.65807 40.9396 -13.8563 91.4547 -84.1972 0.960825 -70.1915 0 88.8779 162.508 29.2728 -77.1088 -5.756 22.0674 1.58038 -169.271 26.566 -175.393 -172.828 67.2617 -150.822 0.973311 -12.4145 -10.5891 -59.5643 36.8906 -165.802 38.7403 18.9101 -66.1529 -20.7096 -1.08588 7.80951 0.00238197 2.15738 19.9378 -58.5675 -34.7739 150.221 52.7897 -13.1803 79.475 4.94234 -0.941497 -24.9741 20.6447 4.16503 76.0442 -171.174 23.1357 155.033 -0.271999 2.02413 0.070139 -28.23 -50.0092 -12.8525 16.9472 -22.3053 100.702 171.086 18.9258 -150.777 -3.15301 -9.41109 0.965617 -11.6769 -40.9892 -13.3052 
